<?xml version="1.0" encoding="UTF-8" standalone="no"?>
<!DOCTYPE svg PUBLIC "-//W3C//DTD SVG 1.1//EN"
 "http://www.w3.org/Graphics/SVG/1.1/DTD/svg11.dtd">
<!-- Generated by graphviz version 2.49.0 (20210829.0051)
 -->
<!-- Title: snakemake_dag Pages: 1 -->
<svg width="646pt" height="476pt"
 viewBox="0.00 0.00 646.00 476.00" xmlns="http://www.w3.org/2000/svg" xmlns:xlink="http://www.w3.org/1999/xlink">
<g id="graph0" class="graph" transform="scale(1 1) rotate(0) translate(4 472)">
<title>snakemake_dag</title>
<polygon fill="white" stroke="transparent" points="-4,4 -4,-472 642,-472 642,4 -4,4"/>
<!-- 0 -->
<g id="node1" class="node">
<title>0</title>
<path fill="none" stroke="#97d856" stroke-width="2" d="M361,-36C361,-36 269,-36 269,-36 263,-36 257,-30 257,-24 257,-24 257,-12 257,-12 257,-6 263,0 269,0 269,0 361,0 361,0 367,0 373,-6 373,-12 373,-12 373,-24 373,-24 373,-30 367,-36 361,-36"/>
<text text-anchor="middle" x="315" y="-15.5" font-family="sans" font-size="10.00">predict_modification</text>
</g>
<!-- 1 -->
<g id="node2" class="node">
<title>1</title>
<path fill="none" stroke="#d85656" stroke-width="2" d="M346,-252C346,-252 292,-252 292,-252 286,-252 280,-246 280,-240 280,-240 280,-228 280,-228 280,-222 286,-216 292,-216 292,-216 346,-216 346,-216 352,-216 358,-222 358,-228 358,-228 358,-240 358,-240 358,-246 352,-252 346,-252"/>
<text text-anchor="middle" x="319" y="-231.5" font-family="sans" font-size="10.00">get_features</text>
</g>
<!-- 1&#45;&gt;0 -->
<g id="edge1" class="edge">
<title>1&#45;&gt;0</title>
<path fill="none" stroke="grey" stroke-width="2" d="M312.35,-215.63C308.8,-205.42 304.8,-192.17 303,-180 296.08,-133.17 303.52,-78.05 309.38,-45.96"/>
<polygon fill="grey" stroke="grey" stroke-width="2" points="312.84,-46.49 311.28,-36.01 305.96,-45.17 312.84,-46.49"/>
</g>
<!-- 12 -->
<g id="node13" class="node">
<title>12</title>
<path fill="none" stroke="#56d8d8" stroke-width="2" d="M388.5,-180C388.5,-180 323.5,-180 323.5,-180 317.5,-180 311.5,-174 311.5,-168 311.5,-168 311.5,-156 311.5,-156 311.5,-150 317.5,-144 323.5,-144 323.5,-144 388.5,-144 388.5,-144 394.5,-144 400.5,-150 400.5,-156 400.5,-156 400.5,-168 400.5,-168 400.5,-174 394.5,-180 388.5,-180"/>
<text text-anchor="middle" x="356" y="-159.5" font-family="sans" font-size="10.00">split_train_test</text>
</g>
<!-- 1&#45;&gt;12 -->
<g id="edge13" class="edge">
<title>1&#45;&gt;12</title>
<path fill="none" stroke="grey" stroke-width="2" d="M328.15,-215.7C332.4,-207.64 337.56,-197.89 342.27,-188.98"/>
<polygon fill="grey" stroke="grey" stroke-width="2" points="345.38,-190.58 346.96,-180.1 339.19,-187.31 345.38,-190.58"/>
</g>
<!-- 2 -->
<g id="node3" class="node">
<title>2</title>
<path fill="none" stroke="#569ad8" stroke-width="2" d="M348.5,-324C348.5,-324 289.5,-324 289.5,-324 283.5,-324 277.5,-318 277.5,-312 277.5,-312 277.5,-300 277.5,-300 277.5,-294 283.5,-288 289.5,-288 289.5,-288 348.5,-288 348.5,-288 354.5,-288 360.5,-294 360.5,-300 360.5,-300 360.5,-312 360.5,-312 360.5,-318 354.5,-324 348.5,-324"/>
<text text-anchor="middle" x="319" y="-303.5" font-family="sans" font-size="10.00">jacusa2_call2</text>
</g>
<!-- 2&#45;&gt;1 -->
<g id="edge3" class="edge">
<title>2&#45;&gt;1</title>
<path fill="none" stroke="grey" stroke-width="2" d="M319,-287.7C319,-279.98 319,-270.71 319,-262.11"/>
<polygon fill="grey" stroke="grey" stroke-width="2" points="322.5,-262.1 319,-252.1 315.5,-262.1 322.5,-262.1"/>
</g>
<!-- 3 -->
<g id="node4" class="node">
<title>3</title>
<path fill="none" stroke="#d6d856" stroke-width="2" stroke-dasharray="5,2" d="M154,-396C154,-396 112,-396 112,-396 106,-396 100,-390 100,-384 100,-384 100,-372 100,-372 100,-366 106,-360 112,-360 112,-360 154,-360 154,-360 160,-360 166,-366 166,-372 166,-372 166,-384 166,-384 166,-390 160,-396 154,-396"/>
<text text-anchor="middle" x="133" y="-375.5" font-family="sans" font-size="10.00">filter_bam</text>
</g>
<!-- 3&#45;&gt;2 -->
<g id="edge4" class="edge">
<title>3&#45;&gt;2</title>
<path fill="none" stroke="grey" stroke-width="2" d="M166.25,-364.49C194.38,-353.9 235.15,-338.56 267.49,-326.39"/>
<polygon fill="grey" stroke="grey" stroke-width="2" points="269.11,-329.52 277.23,-322.72 266.64,-322.96 269.11,-329.52"/>
</g>
<!-- 4 -->
<g id="node5" class="node">
<title>4</title>
<path fill="none" stroke="#d89556" stroke-width="2" stroke-dasharray="5,2" d="M134,-468C134,-468 12,-468 12,-468 6,-468 0,-462 0,-456 0,-456 0,-444 0,-444 0,-438 6,-432 12,-432 12,-432 134,-432 134,-432 140,-432 146,-438 146,-444 146,-444 146,-456 146,-456 146,-462 140,-468 134,-468"/>
<text text-anchor="middle" x="73" y="-453" font-family="sans" font-size="10.00">sort_bam</text>
<text text-anchor="middle" x="73" y="-442" font-family="sans" font-size="10.00">sample: HEK293T&#45;WT&#45;rep2</text>
</g>
<!-- 4&#45;&gt;3 -->
<g id="edge8" class="edge">
<title>4&#45;&gt;3</title>
<path fill="none" stroke="grey" stroke-width="2" d="M87.83,-431.7C95.02,-423.3 103.8,-413.07 111.69,-403.86"/>
<polygon fill="grey" stroke="grey" stroke-width="2" points="114.49,-405.97 118.34,-396.1 109.17,-401.42 114.49,-405.97"/>
</g>
<!-- 5 -->
<g id="node6" class="node">
<title>5</title>
<path fill="none" stroke="#d6d856" stroke-width="2" stroke-dasharray="5,2" d="M278,-396C278,-396 236,-396 236,-396 230,-396 224,-390 224,-384 224,-384 224,-372 224,-372 224,-366 230,-360 236,-360 236,-360 278,-360 278,-360 284,-360 290,-366 290,-372 290,-372 290,-384 290,-384 290,-390 284,-396 278,-396"/>
<text text-anchor="middle" x="257" y="-375.5" font-family="sans" font-size="10.00">filter_bam</text>
</g>
<!-- 5&#45;&gt;2 -->
<g id="edge5" class="edge">
<title>5&#45;&gt;2</title>
<path fill="none" stroke="grey" stroke-width="2" d="M272.33,-359.7C279.76,-351.3 288.82,-341.07 296.98,-331.86"/>
<polygon fill="grey" stroke="grey" stroke-width="2" points="299.84,-333.91 303.85,-324.1 294.6,-329.27 299.84,-333.91"/>
</g>
<!-- 6 -->
<g id="node7" class="node">
<title>6</title>
<path fill="none" stroke="#d89556" stroke-width="2" stroke-dasharray="5,2" d="M298,-468C298,-468 176,-468 176,-468 170,-468 164,-462 164,-456 164,-456 164,-444 164,-444 164,-438 170,-432 176,-432 176,-432 298,-432 298,-432 304,-432 310,-438 310,-444 310,-444 310,-456 310,-456 310,-462 304,-468 298,-468"/>
<text text-anchor="middle" x="237" y="-453" font-family="sans" font-size="10.00">sort_bam</text>
<text text-anchor="middle" x="237" y="-442" font-family="sans" font-size="10.00">sample: HEK293T&#45;WT&#45;rep3</text>
</g>
<!-- 6&#45;&gt;5 -->
<g id="edge9" class="edge">
<title>6&#45;&gt;5</title>
<path fill="none" stroke="grey" stroke-width="2" d="M241.94,-431.7C244.17,-423.9 246.85,-414.51 249.33,-405.83"/>
<polygon fill="grey" stroke="grey" stroke-width="2" points="252.73,-406.68 252.11,-396.1 246,-404.76 252.73,-406.68"/>
</g>
<!-- 7 -->
<g id="node8" class="node">
<title>7</title>
<path fill="none" stroke="#d6d856" stroke-width="2" stroke-dasharray="5,2" d="M402,-396C402,-396 360,-396 360,-396 354,-396 348,-390 348,-384 348,-384 348,-372 348,-372 348,-366 354,-360 360,-360 360,-360 402,-360 402,-360 408,-360 414,-366 414,-372 414,-372 414,-384 414,-384 414,-390 408,-396 402,-396"/>
<text text-anchor="middle" x="381" y="-375.5" font-family="sans" font-size="10.00">filter_bam</text>
</g>
<!-- 7&#45;&gt;2 -->
<g id="edge6" class="edge">
<title>7&#45;&gt;2</title>
<path fill="none" stroke="grey" stroke-width="2" d="M365.67,-359.7C358.24,-351.3 349.18,-341.07 341.02,-331.86"/>
<polygon fill="grey" stroke="grey" stroke-width="2" points="343.4,-329.27 334.15,-324.1 338.16,-333.91 343.4,-329.27"/>
</g>
<!-- 8 -->
<g id="node9" class="node">
<title>8</title>
<path fill="none" stroke="#d89556" stroke-width="2" stroke-dasharray="5,2" d="M462,-468C462,-468 340,-468 340,-468 334,-468 328,-462 328,-456 328,-456 328,-444 328,-444 328,-438 334,-432 340,-432 340,-432 462,-432 462,-432 468,-432 474,-438 474,-444 474,-444 474,-456 474,-456 474,-462 468,-468 462,-468"/>
<text text-anchor="middle" x="401" y="-453" font-family="sans" font-size="10.00">sort_bam</text>
<text text-anchor="middle" x="401" y="-442" font-family="sans" font-size="10.00">sample: HEK293T&#45;KO&#45;rep2</text>
</g>
<!-- 8&#45;&gt;7 -->
<g id="edge10" class="edge">
<title>8&#45;&gt;7</title>
<path fill="none" stroke="grey" stroke-width="2" d="M396.06,-431.7C393.83,-423.9 391.15,-414.51 388.67,-405.83"/>
<polygon fill="grey" stroke="grey" stroke-width="2" points="392,-404.76 385.89,-396.1 385.27,-406.68 392,-404.76"/>
</g>
<!-- 9 -->
<g id="node10" class="node">
<title>9</title>
<path fill="none" stroke="#d6d856" stroke-width="2" stroke-dasharray="5,2" d="M546,-396C546,-396 504,-396 504,-396 498,-396 492,-390 492,-384 492,-384 492,-372 492,-372 492,-366 498,-360 504,-360 504,-360 546,-360 546,-360 552,-360 558,-366 558,-372 558,-372 558,-384 558,-384 558,-390 552,-396 546,-396"/>
<text text-anchor="middle" x="525" y="-375.5" font-family="sans" font-size="10.00">filter_bam</text>
</g>
<!-- 9&#45;&gt;2 -->
<g id="edge7" class="edge">
<title>9&#45;&gt;2</title>
<path fill="none" stroke="grey" stroke-width="2" d="M491.9,-365.75C459.12,-354.61 408.45,-337.4 370.42,-324.47"/>
<polygon fill="grey" stroke="grey" stroke-width="2" points="371.15,-321.02 360.55,-321.12 368.89,-327.65 371.15,-321.02"/>
</g>
<!-- 10 -->
<g id="node11" class="node">
<title>10</title>
<path fill="none" stroke="#d89556" stroke-width="2" stroke-dasharray="5,2" d="M626,-468C626,-468 504,-468 504,-468 498,-468 492,-462 492,-456 492,-456 492,-444 492,-444 492,-438 498,-432 504,-432 504,-432 626,-432 626,-432 632,-432 638,-438 638,-444 638,-444 638,-456 638,-456 638,-462 632,-468 626,-468"/>
<text text-anchor="middle" x="565" y="-453" font-family="sans" font-size="10.00">sort_bam</text>
<text text-anchor="middle" x="565" y="-442" font-family="sans" font-size="10.00">sample: HEK293T&#45;KO&#45;rep3</text>
</g>
<!-- 10&#45;&gt;9 -->
<g id="edge11" class="edge">
<title>10&#45;&gt;9</title>
<path fill="none" stroke="grey" stroke-width="2" d="M555.11,-431.7C550.51,-423.64 544.94,-413.89 539.85,-404.98"/>
<polygon fill="grey" stroke="grey" stroke-width="2" points="542.77,-403.05 534.77,-396.1 536.7,-406.52 542.77,-403.05"/>
</g>
<!-- 11 -->
<g id="node12" class="node">
<title>11</title>
<path fill="none" stroke="#59d856" stroke-width="2" d="M376.5,-108C376.5,-108 327.5,-108 327.5,-108 321.5,-108 315.5,-102 315.5,-96 315.5,-96 315.5,-84 315.5,-84 315.5,-78 321.5,-72 327.5,-72 327.5,-72 376.5,-72 376.5,-72 382.5,-72 388.5,-78 388.5,-84 388.5,-84 388.5,-96 388.5,-96 388.5,-102 382.5,-108 376.5,-108"/>
<text text-anchor="middle" x="352" y="-87.5" font-family="sans" font-size="10.00">get_pattern</text>
</g>
<!-- 11&#45;&gt;0 -->
<g id="edge2" class="edge">
<title>11&#45;&gt;0</title>
<path fill="none" stroke="grey" stroke-width="2" d="M342.85,-71.7C338.6,-63.64 333.44,-53.89 328.73,-44.98"/>
<polygon fill="grey" stroke="grey" stroke-width="2" points="331.81,-43.31 324.04,-36.1 325.62,-46.58 331.81,-43.31"/>
</g>
<!-- 12&#45;&gt;11 -->
<g id="edge12" class="edge">
<title>12&#45;&gt;11</title>
<path fill="none" stroke="grey" stroke-width="2" d="M355.01,-143.7C354.57,-135.98 354.04,-126.71 353.55,-118.11"/>
<polygon fill="grey" stroke="grey" stroke-width="2" points="357.04,-117.89 352.98,-108.1 350.05,-118.29 357.04,-117.89"/>
</g>
</g>
</svg>
